<?xml version="1.0" encoding="utf-8" standalone="no"?>
<!DOCTYPE svg PUBLIC "-//W3C//DTD SVG 1.1//EN"
  "http://www.w3.org/Graphics/SVG/1.1/DTD/svg11.dtd">
<svg xmlns:xlink="http://www.w3.org/1999/xlink" width="684pt" height="270.010588pt" viewBox="0 0 684 270.010588" xmlns="http://www.w3.org/2000/svg" version="1.1">
 <metadata>
  <rdf:RDF xmlns:dc="http://purl.org/dc/elements/1.1/" xmlns:cc="http://creativecommons.org/ns#" xmlns:rdf="http://www.w3.org/1999/02/22-rdf-syntax-ns#">
   <cc:Work>
    <dc:type rdf:resource="http://purl.org/dc/dcmitype/StillImage"/>
    <dc:date>2026-10-02T22:51:10.845550</dc:date>
    <dc:format>image/svg+xml</dc:format>
    <dc:creator>
     <cc:Agent>
      <dc:title>Matplotlib v3.10.8, https://matplotlib.org/</dc:title>
     </cc:Agent>
    </dc:creator>
   </cc:Work>
  </rdf:RDF>
 </metadata>
 <defs>
  <style type="text/css">*{stroke-linejoin: round; stroke-linecap: butt}</style>
 </defs>
 <g id="figure_1">
  <g id="patch_1">
   <path d="M 0 270.010588 
L 684 270.010588 
L 684 0 
L 0 0 
z
" style="fill: #ffffff"/>
  </g>
  <g id="axes_1">
   <g id="line2d_1">
    <path d="M 62.857289 200.731304 
L 148.483887 115.104706 
" clip-path="url(#p82e46f93fd)" style="fill: none; stroke: #153a52; stroke-width: 5; stroke-linecap: square"/>
   </g>
   <g id="line2d_2">
    <path d="M 56.435294 108.682711 
L 154.905882 207.153299 
" clip-path="url(#p82e46f93fd)" style="fill: none; stroke-dasharray: 7.4,3.2; stroke-dashoffset: 0; stroke: #c99a3d; stroke-width: 2"/>
   </g>
   <g id="line2d_3">
    <defs>
     <path id="m10a3874059" d="M 0 3 
C 0.795609 3 1.55874 2.683901 2.12132 2.12132 
C 2.683901 1.55874 3 0.795609 3 0 
C 3 -0.795609 2.683901 -1.55874 2.12132 -2.12132 
C 1.55874 -2.683901 0.795609 -3 0 -3 
C -0.795609 -3 -1.55874 -2.683901 -2.12132 -2.12132 
C -2.683901 -1.55874 -3 -0.795609 -3 0 
C -3 0.795609 -2.683901 1.55874 -2.12132 2.12132 
C -1.55874 2.683901 -0.795609 3 0 3 
z
" style="stroke: #153a52"/>
    </defs>
    <g clip-path="url(#p82e46f93fd)">
     <use xlink:href="#m10a3874059" x="105.670588" y="157.918005" style="fill: #153a52; stroke: #153a52"/>
    </g>
   </g>
   <g id="patch_2">
    <path d="M 105.670588 232.98291 
Q 105.670588 196.451537 105.670588 162.715248 
" style="fill: none; stroke: #153a52; stroke-width: 2.5; stroke-linecap: round"/>
    <path d="M 103.270588 167.515248 
L 105.670588 162.715248 
L 108.070588 167.515248 
" style="fill: none; stroke: #153a52; stroke-width: 2.5; stroke-linecap: round"/>
   </g>
   <g id="patch_3">
    <path d="M 107.669622 157.918005 
Q 144.200995 157.918005 177.937283 157.918005 
" style="fill: none; stroke: #153a52; stroke-width: 2.5; stroke-linecap: round"/>
    <path d="M 173.137283 155.518005 
L 177.937283 157.918005 
L 173.137283 160.318005 
" style="fill: none; stroke: #153a52; stroke-width: 2.5; stroke-linecap: round"/>
   </g>
   <g id="text_1">
    <text style="font-size: 10px; font-family: 'DejaVu Sans'; text-anchor: middle" x="105.670588" y="241.403939" transform="rotate(-0 105.670588 241.403939)">upward incoming ray</text>
   </g>
   <g id="text_2">
    <text style="font-weight: 700; font-size: 11px; font-family: 'DejaVu Sans'; text-anchor: middle" x="105.670588" y="100.120051" transform="rotate(-0 105.670588 100.120051)">UP-RIGHT MIRROR</text>
   </g>
   <g id="text_3">
    <text style="font-size: 11px; font-family: 'DejaVu Sans'; text-anchor: middle" x="105.670588" y="118.52977" transform="rotate(-0 105.670588 118.52977)">sends the ray RIGHT</text>
   </g>
  </g>
  <g id="axes_2">
   <g id="line2d_4">
    <path d="M 299.186701 115.104706 
L 384.813299 200.731304 
" clip-path="url(#p4de4e40fee)" style="fill: none; stroke: #153a52; stroke-width: 5; stroke-linecap: square"/>
   </g>
   <g id="line2d_5">
    <path d="M 292.764706 207.153299 
L 391.235294 108.682711 
" clip-path="url(#p4de4e40fee)" style="fill: none; stroke-dasharray: 7.4,3.2; stroke-dashoffset: 0; stroke: #c99a3d; stroke-width: 2"/>
   </g>
   <g id="line2d_6">
    <g clip-path="url(#p4de4e40fee)">
     <use xlink:href="#m10a3874059" x="342" y="157.918005" style="fill: #153a52; stroke: #153a52"/>
    </g>
   </g>
   <g id="patch_4">
    <path d="M 342 232.98291 
Q 342 196.451537 342 162.715248 
" style="fill: none; stroke: #153a52; stroke-width: 2.5; stroke-linecap: round"/>
    <path d="M 339.6 167.515248 
L 342 162.715248 
L 344.4 167.515248 
" style="fill: none; stroke: #153a52; stroke-width: 2.5; stroke-linecap: round"/>
   </g>
   <g id="patch_5">
    <path d="M 340.000966 157.918005 
Q 303.469593 157.918005 269.733305 157.918005 
" style="fill: none; stroke: #153a52; stroke-width: 2.5; stroke-linecap: round"/>
    <path d="M 274.533305 160.318005 
L 269.733305 157.918005 
L 274.533305 155.518005 
" style="fill: none; stroke: #153a52; stroke-width: 2.5; stroke-linecap: round"/>
   </g>
   <g id="text_4">
    <text style="font-size: 10px; font-family: 'DejaVu Sans'; text-anchor: middle" x="342" y="241.403939" transform="rotate(-0 342 241.403939)">upward incoming ray</text>
   </g>
   <g id="text_5">
    <text style="font-weight: 700; font-size: 11px; font-family: 'DejaVu Sans'; text-anchor: middle" x="342" y="100.120051" transform="rotate(-0 342 100.120051)">DOWN-RIGHT MIRROR</text>
   </g>
   <g id="text_6">
    <text style="font-size: 11px; font-family: 'DejaVu Sans'; text-anchor: middle" x="342" y="118.52977" transform="rotate(-0 342 118.52977)">sends the ray LEFT</text>
   </g>
  </g>
  <g id="axes_3">
   <g id="line2d_7">
    <path d="M 610.439386 260.669923 
L 648.971355 222.137954 
" clip-path="url(#pe6c3d030dd)" style="fill: none; stroke: #153a52; stroke-width: 4; stroke-linecap: square"/>
   </g>
   <g id="line2d_8">
    <path d="M 599.736061 211.434629 
L 659.31202 271.010588 
" clip-path="url(#pe6c3d030dd)" style="fill: none; stroke-dasharray: 7.4,3.2; stroke-dashoffset: 0; stroke: #c99a3d; stroke-width: 2"/>
   </g>
   <g id="line2d_9">
    <g clip-path="url(#pe6c3d030dd)">
     <use xlink:href="#m10a3874059" x="629.705371" y="241.403939" style="fill: #153a52; stroke: #153a52"/>
    </g>
   </g>
   <g id="line2d_10">
    <path d="M 610.439386 93.698056 
L 648.971355 132.230026 
" clip-path="url(#pe6c3d030dd)" style="fill: none; stroke: #153a52; stroke-width: 4; stroke-linecap: square"/>
   </g>
   <g id="line2d_11">
    <path d="M 599.736061 142.93335 
L 659.67468 82.994731 
" clip-path="url(#pe6c3d030dd)" style="fill: none; stroke-dasharray: 7.4,3.2; stroke-dashoffset: 0; stroke: #c99a3d; stroke-width: 2"/>
   </g>
   <g id="line2d_12">
    <g clip-path="url(#pe6c3d030dd)">
     <use xlink:href="#m10a3874059" x="629.705371" y="112.964041" style="fill: #153a52; stroke: #153a52"/>
    </g>
   </g>
   <g id="patch_6">
    <path d="M 503.268427 241.403939 
Q 565.485605 241.403939 624.907699 241.403939 
" style="fill: none; stroke: #153a52; stroke-width: 2.5; stroke-linecap: round"/>
    <path d="M 620.107699 239.003939 
L 624.907699 241.403939 
L 620.107699 243.803939 
" style="fill: none; stroke: #153a52; stroke-width: 2.5; stroke-linecap: round"/>
   </g>
   <g id="patch_7">
    <path d="M 629.705371 239.400985 
Q 629.705371 177.183806 629.705371 117.761713 
" style="fill: none; stroke: #153a52; stroke-width: 2.5; stroke-linecap: round"/>
    <path d="M 627.305371 122.561713 
L 629.705371 117.761713 
L 632.105371 122.561713 
" style="fill: none; stroke: #153a52; stroke-width: 2.5; stroke-linecap: round"/>
   </g>
   <g id="patch_8">
    <path d="M 627.702417 112.964041 
Q 565.485239 112.964041 506.063145 112.964041 
" style="fill: none; stroke: #153a52; stroke-width: 2.5; stroke-linecap: round"/>
    <path d="M 510.863145 115.364041 
L 506.063145 112.964041 
L 510.863145 110.564041 
" style="fill: none; stroke: #153a52; stroke-width: 2.5; stroke-linecap: round"/>
   </g>
   <g id="text_7">
    <text style="font-size: 10px; font-family: 'DejaVu Sans'; text-anchor: start" x="509.828133" y="232.841279" transform="rotate(-0 509.828133 232.841279)">source</text>
   </g>
   <g id="text_8">
    <text style="font-size: 10px; font-family: 'DejaVu Sans'; text-anchor: start" x="509.828133" y="102.260716" transform="rotate(-0 509.828133 102.260716)">target</text>
   </g>
   <g id="text_9">
    <text style="font-weight: 700; font-size: 11px; font-family: 'DejaVu Sans'; text-anchor: middle" x="574.048082" y="78.713402" transform="rotate(-0 574.048082 78.713402)">RIGHT → UP → LEFT</text>
   </g>
  </g>
  <g id="text_10">
   <text style="font-weight: 700; font-size: 15px; font-family: 'DejaVu Sans'; text-anchor: middle" x="331.2" y="18.597656" transform="rotate(-0 331.2 18.597656)">The dashed normal turns with its mirror</text>
  </g>
 </g>
 <defs>
  <clipPath id="p82e46f93fd">
   <rect x="7.2" y="85.135396" width="196.941176" height="158.409207"/>
  </clipPath>
  <clipPath id="p4de4e40fee">
   <rect x="243.529412" y="85.135396" width="196.941176" height="158.409207"/>
  </clipPath>
  <clipPath id="pe6c3d030dd">
   <rect x="479.858824" y="65.869412" width="196.941176" height="196.941176"/>
  </clipPath>
 </defs>
</svg>
